<?xml version="1.0" encoding="UTF-8"?>
<svg id="Layer_1" xmlns="http://www.w3.org/2000/svg" version="1.1" viewBox="0 0 363.28 179.89">
  <!-- Generator: Adobe Illustrator 30.8.0, SVG Export Plug-In . SVG Version: 2.1.4 Build 7)  -->
  <defs>
    <style>
      .st0 {
        fill: #00427a;
      }

      .st0, .st1, .st2, .st3, .st4, .st5 {
        fill-rule: evenodd;
      }

      .st6 {
        fill: #414042;
      }

      .st1 {
        fill: #209a82;
      }

      .st7 {
        fill: #4eb855;
      }

      .st2 {
        fill: #00a796;
      }

      .st3 {
        fill: #0e5696;
      }

      .st8 {
        fill: #1169b2;
      }

      .st4 {
        fill: #349e49;
      }

      .st5 {
        fill: #002e5e;
      }
    </style>
  </defs>
  <path class="st4" d="M115.42,149.79l-18.05-17.39c-3.5-3.37-3.5-8.84,0-12.21h0c3.5-3.37,9.18-3.37,12.68,0l18.05,17.39c3.5,3.37,3.5,8.84,0,12.21h0c-3.5,3.37-9.18,3.37-12.68,0Z"/>
  <rect class="st7" x="113.28" y="15.89" width="17.6" height="136.79" rx="8.74" ry="8.74"/>
  <path class="st3" d="M29.39,32.69l18.05,17.39c3.5,3.37,3.5,8.84,0,12.21h0c-3.5,3.37-9.18,3.37-12.68,0l-18.05-17.39c-3.5-3.37-3.5-8.84,0-12.21h0c3.5-3.37,9.18-3.37,12.68,0Z"/>
  <rect class="st8" x="13.94" y="29.8" width="17.6" height="136.79" rx="8.74" ry="8.74" transform="translate(45.47 196.39) rotate(-180)"/>
  <path class="st0" d="M16.71,164.33h0c-3.44-3.32-3.71-8.44-.6-11.43l69.82-67.24c3.11-3,8.43-2.74,11.87.58h0c3.44,3.32,3.71,8.44.6,11.43L28.58,164.91c-3.11,3-8.43,2.74-11.87-.58Z"/>
  <path class="st5" d="M89.91,100.63c-4.81-.93-7.94-5.46-6.96-10.13.97-4.66,5.67-7.68,10.48-6.75,4.82.94,7.94,5.47,6.96,10.14-.97,4.66-5.67,7.68-10.48,6.75Z"/>
  <path class="st2" d="M128.1,14.67h0c3.44,3.32,3.71,8.44.6,11.43L58.89,93.34c-3.11,3-8.43,2.74-11.87-.58h0c-3.44-3.32-3.71-8.44-.6-11.43L116.23,14.09c3.11-3,8.43-2.74,11.87.58Z"/>
  <path class="st1" d="M53.67,79.73c4.81.93,7.94,5.46,6.96,10.13-.97,4.66-5.67,7.68-10.48,6.75-4.82-.94-7.94-5.47-6.96-10.14.97-4.66,5.67-7.68,10.48-6.75Z"/>
  <g>
    <path class="st6" d="M153.52,53.33v51.11h-15.52v-51.11h15.52ZM155.48,65.58l6.99-12.26h2.59c15.52,0,23.22,8.55,23.22,17.1,0,6.2-4.13,12.46-12.31,15.42l12.66,18.59h-17.62l-11.47-16.84h-4.06l6.99-12.26h2.59c4.2,0,6.36-2.42,6.36-4.85s-2.1-4.92-6.36-4.92h-9.58Z"/>
    <path class="st6" d="M221.07,105.32c-14.27,0-28.46-8.82-28.46-26.46s14.2-26.47,28.46-26.47,28.53,8.82,28.53,26.47-14.27,26.46-28.53,26.46ZM221.07,64.37c-6.01,0-11.96,4.85-11.96,14.55s6.01,14.48,12.03,14.48,11.96-4.85,11.96-14.55-6.01-14.48-12.03-14.48Z"/>
    <path class="st6" d="M250.79,53.33h52.52l-6.99,12.26h-45.53v-12.26ZM283.1,71.51v32.93h-15.52v-37.64l15.52,4.71Z"/>
    <path class="st6" d="M328.76,53.33l-15.04,38.86h11.89l-6.99,12.26h-26.22l19.79-51.11h16.57ZM349.39,104.44h-16.57l-11.33-29.36h16.57l11.33,29.36Z"/>
  </g>
  <g>
    <path class="st6" d="M142.38,112.28v14.44h-4.39v-14.44h4.39ZM142.94,115.75l1.98-3.46h.73c4.39,0,6.56,2.42,6.56,4.83,0,1.75-1.17,3.52-3.48,4.36l3.58,5.25h-4.98l-3.24-4.76h-1.15l1.98-3.46h.73c1.19,0,1.8-.68,1.8-1.37s-.59-1.39-1.8-1.39h-2.71Z"/>
    <path class="st6" d="M160.37,115.86c3.58,0,7.17,1.86,7.17,5.54s-3.5,5.56-7.03,5.56-7.17-1.86-7.17-5.56,3.5-5.54,7.03-5.54ZM160.45,119.19c-1.17,0-2.35.72-2.35,2.21s1.19,2.23,2.35,2.23,2.33-.74,2.33-2.23-1.17-2.21-2.33-2.21Z"/>
    <path class="st6" d="M173.25,111.9v4.19h3.06c4.56,0,6.76,2.59,6.76,5.21s-2.31,5.42-6.76,5.42h-1.52v-3.46h1.52c1.32,0,2-.91,2-1.85s-.67-1.87-2-1.87h-3.06v7.17h-4.39v-14.82h4.39Z"/>
    <path class="st6" d="M190.84,115.86c3.58,0,7.17,1.86,7.17,5.54s-3.5,5.56-7.03,5.56-7.17-1.86-7.17-5.56,3.5-5.54,7.03-5.54ZM190.92,119.19c-1.17,0-2.35.72-2.35,2.21s1.19,2.23,2.35,2.23,2.33-.74,2.33-2.23-1.17-2.21-2.33-2.21Z"/>
    <path class="st6" d="M199.26,111.9h4.39v4.17h3.71l-1.98,3.46h-1.74v3.73h2.94l1.98,3.46h-4.92c-2.43,0-4.39-1.62-4.39-3.6v-11.23Z"/>
    <path class="st6" d="M213.41,114.95h-4.39v-2.64h4.39v2.64ZM211,116.09h2.41v10.64h-4.39v-7.17l1.98-3.46Z"/>
    <path class="st6" d="M219.77,112.28v9.34l2.65-2.8,7.29,7.9h-4.74l-2.55-2.68-2.29,2.68h-4.74v-14.44h4.39ZM223.15,118.09l1.82-1.98h4.74l-4.15,4.53-2.41-2.55Z"/>
    <path class="st6" d="M235.94,115.4c0-1.64,1.3-3.12,4.25-3.12h9.86l-1.98,3.46h-7.29l7.05,4.81c1.13.76,1.7,1.88,1.7,2.97,0,1.66-1.36,3.2-4.25,3.2h-9.86l1.98-3.46h7.29l-6.92-4.68c-1.19-.8-1.84-2.04-1.84-3.18Z"/>
    <path class="st6" d="M255.21,114.95h-4.39v-2.64h4.39v2.64ZM252.8,116.09h2.41v10.64h-4.39v-7.17l1.98-3.46Z"/>
    <path class="st6" d="M256.65,119.8c0-1.69,1.68-3.71,4.43-3.71h9.27l-1.98,2.89h-6.7l6.62,1.96c1.28.38,1.88,1.12,1.88,2.07,0,1.67-1.78,3.71-4.43,3.71h-9.5l1.98-2.89h6.94l-6.48-1.83c-1.36-.38-2.02-1.18-2.02-2.21Z"/>
    <path class="st6" d="M271.54,111.9h4.39v4.17h3.71l-1.98,3.46h-1.74v3.73h2.94l1.98,3.46h-4.92c-2.43,0-4.39-1.62-4.39-3.6v-11.23Z"/>
    <path class="st6" d="M289.16,123.26h5.28l-1.98,3.46h-5c-4.45,0-6.76-2.72-6.76-5.42s2.19-5.21,6.76-5.21h3.08v2.68l2.57-1.81,1.56,2.26-5.51,4.03ZM287.46,119.55c-1.32,0-2,.93-2,1.87,0,.27.06.55.18.8l3.77-2.66h-1.96Z"/>
    <path class="st6" d="M299.7,116.09h2.07c2.25,0,3.91.72,4.96,1.81l1.03-1.81h2.07c4.31,0,6.38,2.64,6.38,5.33l.04,5.31h-4.39l-.04-5.31c0-.93-.67-1.87-2-1.87h-2.03c.24.59.36,1.24.36,1.87l.04,5.31h-4.39l-.04-5.31c0-.93-.67-1.87-2-1.87h-1.68v7.17h-4.39v-10.64l3.02,1.69.97-1.69Z"/>
    <path class="st6" d="M322.54,111.88v14.84h-4.39v-14.84h4.39Z"/>
    <path class="st6" d="M332.36,123.26h5.28l-1.98,3.46h-5c-4.45,0-6.76-2.72-6.76-5.42s2.19-5.21,6.76-5.21h3.08v2.68l2.57-1.81,1.56,2.26-5.51,4.03ZM330.67,119.55c-1.32,0-2,.93-2,1.87,0,.27.06.55.18.8l3.77-2.66h-1.96Z"/>
    <path class="st6" d="M346.36,119.55h-3.06v7.17h-4.39v-10.64l3.02,1.69.97-1.69h3.46c2.04,0,3.6.59,4.64,1.5l-3.12,2.57c-.34-.36-.85-.61-1.52-.61Z"/>
  </g>
</svg>