<?xml version="1.0" encoding="UTF-8"?>
<svg xmlns="http://www.w3.org/2000/svg" viewBox="0 0 363.28 179.89" role="img" aria-labelledby="title">
  <title id="title">Rota Robotic Systems</title>
  <defs>
    <style>
      .shape{fill-rule:evenodd}.ink{fill:#414042}.green-dark{fill:#349e49}.green{fill:#4eb855}.blue{fill:#1169b2}.blue-dark{fill:#00427a}.navy{fill:#002e5e}.teal{fill:#00a796}.teal-dark{fill:#209a82}
    </style>
  </defs>
  <path class="shape green-dark" d="M115.42 149.79 97.37 132.4a8.36 8.36 0 0 1 0-12.21 9.18 9.18 0 0 1 12.68 0l18.05 17.39a8.36 8.36 0 0 1 0 12.21 9.18 9.18 0 0 1-12.68 0Z"/>
  <rect class="green" x="113.28" y="15.89" width="17.6" height="136.79" rx="8.74"/>
  <path class="shape" fill="#0e5696" d="m29.39 32.69 18.05 17.39a8.36 8.36 0 0 1 0 12.21 9.18 9.18 0 0 1-12.68 0L16.71 44.9a8.36 8.36 0 0 1 0-12.21 9.18 9.18 0 0 1 12.68 0Z"/>
  <rect class="blue" x="13.94" y="29.8" width="17.6" height="136.79" rx="8.74" transform="rotate(180 22.74 98.2)"/>
  <path class="shape blue-dark" d="M16.71 164.33c-3.44-3.32-3.71-8.44-.6-11.43l69.82-67.24c3.11-3 8.43-2.74 11.87.58 3.44 3.32 3.71 8.44.6 11.43l-69.82 67.24c-3.11 3-8.43 2.74-11.87-.58Z"/>
  <path class="shape navy" d="M89.91 100.63a8.63 8.63 0 1 1 3.52-16.88 8.63 8.63 0 0 1-3.52 16.88Z"/>
  <path class="shape teal" d="M128.1 14.67c3.44 3.32 3.71 8.44.6 11.43L58.89 93.34c-3.11 3-8.43 2.74-11.87-.58-3.44-3.32-3.71-8.44-.6-11.43l69.81-67.24c3.11-3 8.43-2.74 11.87.58Z"/>
  <path class="shape teal-dark" d="M53.67 79.73a8.63 8.63 0 1 1-3.52 16.88 8.63 8.63 0 0 1 3.52-16.88Z"/>
  <g class="ink">
    <path d="M153.52 53.33v51.11H138V53.33h15.52Zm1.96 12.25 6.99-12.26h2.59c15.52 0 23.22 8.55 23.22 17.1 0 6.2-4.13 12.46-12.31 15.42l12.66 18.59h-17.62l-11.47-16.84h-4.06l6.99-12.26h2.59c4.2 0 6.36-2.42 6.36-4.85s-2.1-4.92-6.36-4.92h-9.58Z"/>
    <path d="M221.07 105.32c-14.27 0-28.46-8.82-28.46-26.46s14.2-26.47 28.46-26.47 28.53 8.82 28.53 26.47-14.27 26.46-28.53 26.46Zm0-40.95c-6.01 0-11.96 4.85-11.96 14.55s6.01 14.48 12.03 14.48 11.96-4.85 11.96-14.55-6.01-14.48-12.03-14.48Z"/>
    <path d="M250.79 53.33h52.52l-6.99 12.26h-45.53V53.33Zm32.31 18.18v32.93h-15.52V66.8l15.52 4.71Z"/>
    <path d="m328.76 53.33-15.04 38.86h11.89l-6.99 12.26H292.4l19.79-51.11h16.57Zm20.63 51.11h-16.57l-11.33-29.36h16.57l11.33 29.36Z"/>
    <text x="138" y="127" textLength="212" lengthAdjust="spacingAndGlyphs" font-family="Arial Black, Arial, sans-serif" font-size="17.5" font-weight="900">Robotic Systems</text>
  </g>
</svg>
